<mxfile host="app.diagrams.net" modified="2022-09-24T11:23:08.767Z" agent="5.0 (Windows NT 10.0; Win64; x64) AppleWebKit/537.36 (KHTML, like Gecko) Chrome/105.0.0.0 Safari/537.36" etag="oS02xcVVMphWxhordJ1I" version="20.3.6" type="github">
  <diagram id="m2LGEHU6o1Oh3IV56SHB" name="第 1 页">
    <mxGraphModel dx="1422" dy="762" grid="1" gridSize="10" guides="1" tooltips="1" connect="1" arrows="1" fold="1" page="1" pageScale="1" pageWidth="827" pageHeight="1169" math="0" shadow="0">
      <root>
        <mxCell id="0" />
        <mxCell id="1" parent="0" />
        <mxCell id="DlOpWgnFLFn92eDfClBi-1" value="YarnShuffleService" style="rounded=0;whiteSpace=wrap;html=1;verticalAlign=top;align=left;fillColor=#dae8fc;strokeColor=#6c8ebf;" vertex="1" parent="1">
          <mxGeometry x="140" y="220" width="150" height="40" as="geometry" />
        </mxCell>
        <mxCell id="DlOpWgnFLFn92eDfClBi-4" value="&lt;span style=&quot;color: rgb(186, 0, 0); font-family: monospace; font-size: 0px; font-style: normal; font-variant-ligatures: normal; font-variant-caps: normal; font-weight: 400; letter-spacing: normal; orphans: 2; text-align: left; text-indent: 0px; text-transform: none; widows: 2; word-spacing: 0px; -webkit-text-stroke-width: 0px; background-color: rgb(248, 249, 250); text-decoration-thickness: initial; text-decoration-style: initial; text-decoration-color: initial; float: none; display: inline !important;&quot;&gt;ExternalBlockHandler&lt;/span&gt;" style="text;whiteSpace=wrap;html=1;" vertex="1" parent="1">
          <mxGeometry x="600" y="160" width="30" height="40" as="geometry" />
        </mxCell>
        <mxCell id="DlOpWgnFLFn92eDfClBi-5" value="ExternalBlockHandler" style="rounded=0;whiteSpace=wrap;html=1;verticalAlign=top;align=left;fillColor=#dae8fc;strokeColor=#6c8ebf;" vertex="1" parent="1">
          <mxGeometry x="400" y="240" width="140" height="40" as="geometry" />
        </mxCell>
        <mxCell id="DlOpWgnFLFn92eDfClBi-6" value="ExternalBlockHandler" style="rounded=0;whiteSpace=wrap;html=1;verticalAlign=top;align=left;fillColor=#dae8fc;strokeColor=#6c8ebf;" vertex="1" parent="1">
          <mxGeometry x="400" y="310" width="140" height="40" as="geometry" />
        </mxCell>
      </root>
    </mxGraphModel>
  </diagram>
</mxfile>
